<svg width="450" height="472" viewBox="0 0 450 472" fill="none" xmlns="http://www.w3.org/2000/svg">
<g id="db">
<g id="server 1" clip-path="url(#clip0)">
<path id="Vector" d="M450 105.239C450 80.292 425.983 57.286 382.374 40.459C340.264 24.21 284.374 15.261 225 15.261C165.625 15.261 109.737 24.21 67.6264 40.459C24.017 57.286 0 80.292 0 105.239V186.489C0 188.591 0.185267 190.677 0.523332 192.748C0.199592 193.423 0 194.174 0 194.98V276.23C0 278.332 0.185267 280.418 0.523332 282.489C0.199592 283.164 0 283.915 0 284.722V365.972C0 390.918 24.017 413.925 67.6264 430.752C109.737 447.001 165.626 455.95 225 455.95C284.375 455.95 340.264 447.001 382.375 430.752C425.984 413.925 450.001 390.918 450.001 365.972V284.722C450.001 283.915 449.801 283.164 449.478 282.49C449.816 280.418 450.001 278.332 450.001 276.231V194.981C450.001 194.174 449.801 193.423 449.478 192.749C449.816 190.677 450.001 188.591 450.001 186.49V105.239H450ZM70.9278 49.842C112.007 33.99 166.724 25.261 225 25.261C283.275 25.261 337.992 33.99 379.071 49.842C418.078 64.894 440.449 85.085 440.449 105.239C440.449 114.703 435.676 124.095 426.264 133.157C424.322 135.026 424.195 138.189 425.98 140.221C427.765 142.253 430.786 142.387 432.726 140.518C435.678 137.676 438.249 134.778 440.448 131.83V186.488C440.448 206.642 418.077 226.834 379.07 241.885C366.102 246.889 351.77 251.182 336.4 254.716V183.637C357.042 179.023 375.868 173.117 392.008 166.061C394.442 164.997 395.591 162.069 394.575 159.52C393.56 156.971 390.762 155.771 388.33 156.832C347.072 174.87 287.54 185.216 225 185.216C166.724 185.216 112.007 176.487 70.9278 160.635C31.9214 145.585 9.54986 125.394 9.54986 105.239C9.54986 85.084 31.9214 64.894 70.9278 49.842ZM67.6264 170.02C109.737 186.269 165.626 195.218 225 195.218C260.779 195.218 295.647 191.87 326.852 185.659V256.787C295.866 263.111 261.119 266.468 225 266.468C166.726 266.468 112.008 257.739 70.9287 241.887C31.9214 226.835 9.54986 206.644 9.54986 186.489V131.781C20.3431 146.282 40.0665 159.385 67.6264 170.02ZM67.6264 251.27C109.737 267.519 165.627 276.468 225 276.468C260.999 276.468 295.71 273.173 326.852 266.961V346.529C295.866 352.853 261.119 356.21 225 356.21C166.726 356.21 112.008 347.481 70.9287 331.629C31.9214 316.576 9.54986 296.385 9.54986 276.23V213.03C20.3431 227.531 40.0665 240.635 67.6264 251.27ZM440.45 365.972C440.45 386.126 418.079 406.318 379.072 421.369C366.103 426.373 351.772 430.666 336.402 434.2V425.039C336.402 422.277 334.263 420.039 331.627 420.039C328.99 420.039 326.852 422.277 326.852 425.039V436.269C295.867 442.593 261.119 445.95 225 445.95C166.725 445.95 112.008 437.221 70.9287 421.369C31.9214 406.317 9.54986 386.126 9.54986 365.972V302.772C20.3431 317.272 40.0665 330.376 67.6264 341.011C109.737 357.26 165.627 366.209 225 366.209C260.999 366.209 295.71 362.914 326.852 356.702V396.067C326.852 398.829 328.99 401.067 331.627 401.067C334.263 401.067 336.402 398.829 336.402 396.067V354.68C352.984 350.961 368.438 346.389 382.375 341.011C409.935 330.376 429.658 317.272 440.451 302.772V365.972H440.45ZM440.45 276.23C440.45 296.384 418.079 316.576 379.072 331.627C366.104 336.631 351.772 340.924 336.402 344.458V264.937C352.984 261.218 368.438 256.646 382.375 251.268C409.935 240.633 429.658 227.529 440.451 213.029V276.23H440.45Z" fill="black"/>
</g>
</g>
<defs>
<clipPath id="clip0">
<rect width="450" height="471.211" fill="white"/>
</clipPath>
</defs>
</svg>
