<svg width="512" height="512" viewBox="0 0 512 512" fill="none" xmlns="http://www.w3.org/2000/svg">
<g id="rocket 1" clip-path="url(#clip0)">
<path id="left-wing" d="M221.797 139.527C218.875 134.648 213.444 131.847 207.773 132.278L85.8793 141.694C73.5384 142.648 62.5455 149.116 55.7176 159.442L4.56296 236.813C-0.613999 244.644 -1.43799 254.443 2.35998 263.027C6.15695 271.611 13.9619 277.592 23.2368 279.029L122.076 294.338C122.845 294.457 123.613 294.516 124.375 294.516C129.438 294.515 134.228 291.948 137.011 287.594L221.567 155.312C224.63 150.519 224.718 144.407 221.797 139.527V139.527Z" fill="#E45A6E"/>
<path id="right-wing" d="M372.472 290.203C367.592 287.281 361.479 287.37 356.687 290.433L224.406 374.989C219.397 378.191 216.752 384.049 217.661 389.924L232.969 488.763C234.406 498.039 240.388 505.843 248.973 509.641C252.543 511.22 256.323 511.999 260.085 511.999C265.366 511.999 270.613 510.461 275.186 507.438L352.558 456.282C362.884 449.457 369.353 438.463 370.305 426.121L379.721 304.228C380.16 298.557 377.352 293.126 372.472 290.203V290.203Z" fill="#D82E44"/>
<path id="left-fire" d="M15.304 421.935C19.142 421.935 22.982 420.47 25.91 417.541L74.883 368.568C80.741 362.711 80.741 353.213 74.883 347.355C69.026 341.497 59.529 341.497 53.67 347.355L4.69799 396.328C-1.16001 402.185 -1.16001 411.683 4.69799 417.541C7.62699 420.471 11.465 421.935 15.304 421.935V421.935Z" fill="#FDB43A"/>
<path id="right-fire" d="M164.644 437.118C158.787 431.261 149.289 431.261 143.431 437.118L94.4593 486.09C88.6013 491.947 88.6013 501.445 94.4593 507.303C97.3883 510.232 101.227 511.697 105.065 511.697C108.903 511.697 112.743 510.232 115.671 507.303L164.644 458.33C170.502 452.473 170.502 442.975 164.644 437.118V437.118Z" fill="#F57A21"/>
<g id="middle-fire">
<path id="Vector" d="M125.753 386.387C120.092 380.538 110.912 380.538 105.25 386.387L14.2465 480.426C8.5845 486.275 8.5845 495.762 14.2465 501.612C17.0775 504.538 20.7881 506 24.4986 506C28.2092 506 31.9197 504.537 34.7497 501.611L125.753 407.573C131.415 401.723 131.415 392.237 125.753 386.387V386.387Z" fill="#FDB43A"/>
<path id="Vector_2" d="M10.397 501.604C13.326 504.533 17.165 505.997 21.004 505.997C24.843 505.997 28.682 504.532 31.61 501.603L125.764 407.449C131.622 401.592 131.622 392.094 125.764 386.236L10.397 501.604Z" fill="#F57A21"/>
</g>
<g id="main-body">
<path id="Vector_3" d="M192.869 412.275C198.839 418.245 207.322 421.038 215.649 419.645C337.76 399.227 434.388 298.124 471.175 227.001C512.024 148.028 513.537 64.5725 511.402 25.4328C510.67 12.0209 499.979 1.32996 486.567 0.597965C447.427 -1.53602 363.973 -0.0230292 284.999 40.8257C213.877 77.6124 112.774 174.241 92.356 296.352C90.964 304.679 93.756 313.162 99.7259 319.131L192.869 412.275Z" fill="#F1F1FB"/>
<path id="Vector_4" d="M503.739 8.26093L146.297 365.703L192.868 412.275C198.838 418.245 207.321 421.037 215.648 419.645C337.759 399.227 434.388 298.124 471.174 227.002C512.023 148.029 513.536 64.5735 511.401 25.4338C511.035 18.7278 508.179 12.7019 503.739 8.26093V8.26093Z" fill="#D7D6FB"/>
<path id="Vector_5" d="M350.728 236.236C331.519 236.237 312.319 228.927 297.696 214.304C283.53 200.139 275.728 181.305 275.728 161.272C275.728 141.239 283.53 122.404 297.696 108.239C326.936 78.9974 374.517 78.9964 403.76 108.239C417.926 122.404 425.727 141.239 425.727 161.272C425.727 181.305 417.926 200.139 403.76 214.304C389.141 228.924 369.931 236.234 350.728 236.236V236.236ZM308.302 118.846H308.312H308.302Z" fill="#466288"/>
<path id="Vector_6" d="M92.3553 296.352C90.9633 304.679 93.7553 313.162 99.7252 319.132L192.868 412.275C198.838 418.245 207.321 421.037 215.648 419.645C242.219 415.202 267.581 406.936 291.385 395.993L116.007 220.616C105.064 244.419 96.7982 269.782 92.3553 296.352V296.352Z" fill="#466288"/>
<path id="Vector_7" d="M146.297 365.703L192.868 412.275C198.838 418.245 207.321 421.037 215.648 419.645C242.219 415.202 267.581 406.936 291.385 395.993L203.696 308.305L146.297 365.703Z" fill="#354A67"/>
</g>
<path id="Window" d="M350.728 116.294C339.205 116.294 327.681 120.68 318.909 129.453C310.41 137.952 305.728 149.252 305.728 161.272C305.728 173.292 310.41 184.592 318.909 193.091C336.454 210.636 365.004 210.637 382.549 193.091C391.048 184.591 395.729 173.291 395.729 161.271C395.729 149.251 391.048 137.951 382.549 129.452C373.776 120.68 362.253 116.294 350.728 116.294V116.294Z" fill="#4BBEFD"/>
</g>
<defs>
<clipPath id="clip0">
<rect width="512" height="512" fill="white"/>
</clipPath>
</defs>
</svg>
