<svg width="512" height="512" viewBox="0 0 512 512" fill="none" xmlns="http://www.w3.org/2000/svg">
<g id="stars 1">
<g id="XMLID 1159">
<g id="XMLID 2123">
<g id="out-lines">
<g id="XMLID 2151">
<path id="XMLID 856" d="M257.934 512C252.411 512 247.934 507.522 247.934 502V421.123C247.934 415.601 252.411 411.123 257.934 411.123C263.457 411.123 267.934 415.601 267.934 421.123V502C267.934 507.522 263.457 512 257.934 512Z" fill="black"/>
</g>
<g id="XMLID 2150">
<path id="XMLID 855" d="M501.867 334.776C500.843 334.776 499.802 334.617 498.775 334.284L421.857 309.292C416.605 307.585 413.73 301.943 415.437 296.691C417.143 291.439 422.785 288.568 428.038 290.27L504.956 315.262C510.208 316.969 513.083 322.611 511.376 327.863C510.002 332.089 506.082 334.776 501.867 334.776Z" fill="black"/>
</g>
<g id="XMLID 2152">
<path id="XMLID 854" d="M361.145 113.447C359.107 113.447 357.051 112.826 355.275 111.536C350.807 108.29 349.817 102.036 353.063 97.568L400.601 32.137C403.848 27.669 410.1 26.678 414.569 29.925C419.037 33.171 420.027 39.425 416.781 43.893L369.243 109.324C367.287 112.018 364.237 113.447 361.145 113.447Z" fill="black"/>
</g>
<g id="XMLID 2154">
<path id="XMLID 853" d="M154.723 113.447C151.63 113.447 148.581 112.017 146.624 109.324L99.0859 43.894C95.8399 39.426 96.8309 33.172 101.298 29.926C105.767 26.678 112.02 27.67 115.266 32.138L162.804 97.569C166.05 102.037 165.059 108.291 160.592 111.537C158.818 112.826 156.761 113.447 154.723 113.447V113.447Z" fill="black"/>
</g>
<g id="XMLID 2156">
<path id="XMLID 852" d="M14.0009 334.776C9.78488 334.776 5.86588 332.089 4.49188 327.863C2.78588 322.611 5.65988 316.969 10.9119 315.262L87.8299 290.27C93.0839 288.564 98.7239 291.438 100.431 296.691C102.138 301.943 99.2629 307.585 94.0109 309.292L17.0939 334.284C16.0669 334.617 15.0249 334.776 14.0009 334.776V334.776Z" fill="black"/>
</g>
</g>
</g>
<g id="star-content">
<path id="XMLID 2121" d="M187.346 166.557L227.348 42.149C235.547 16.649 271.611 16.605 279.872 42.086L320.227 166.557H451.615C478.362 166.557 489.469 200.795 467.815 216.496L361.737 293.41L402.46 417.539C410.807 442.981 381.673 464.208 360.013 448.465L254.338 371.658L148.289 448.923C126.657 464.684 97.5069 443.515 105.799 418.068L146.452 293.313L40.0979 216.529C18.3889 200.856 29.4759 166.557 56.2519 166.557H187.346Z" fill="#FFCD69"/>
<g id="XMLID 2119">
<path id="XMLID 871" d="M134.462 454.353C126.772 454.353 119.082 451.917 112.369 447.042C98.9266 437.28 93.5656 420.767 98.7136 404.971L137.107 287.153L36.6666 214.637C23.1916 204.908 17.7886 188.404 22.9006 172.59C28.0126 156.776 42.0546 146.558 58.6746 146.558H182.48L220.252 29.088C225.341 13.261 239.373 3.021 255.999 3H256.048C272.652 3 286.686 13.201 291.809 29.002L329.921 146.558H343.344C348.867 146.558 353.344 151.036 353.344 156.558C353.344 162.08 348.867 166.558 343.344 166.558H322.65C318.316 166.558 314.474 163.765 313.137 159.642L272.783 35.17C269.874 26.196 262.233 23 256.044 23C256.037 23 256.03 23 256.023 23C249.83 23.008 242.183 26.219 239.292 35.21L199.289 159.619C197.959 163.754 194.113 166.558 189.769 166.558H58.6746C49.2336 166.558 43.8346 172.852 41.9306 178.742C40.0266 184.633 40.7196 192.895 48.3736 198.423L154.728 275.208C158.252 277.752 159.729 282.281 158.382 286.414L117.729 411.169C114.805 420.142 119.113 427.224 124.121 430.859C129.128 434.495 137.197 436.399 144.823 430.843L250.872 353.577C254.377 351.022 259.131 351.018 262.64 353.57L368.315 430.377C375.952 435.927 384.019 434.01 389.023 430.365C394.026 426.719 398.324 419.628 395.381 410.657L354.658 286.527C353.304 282.397 354.771 277.865 358.29 275.314L464.368 198.4C472.003 192.864 472.685 184.606 470.777 178.724C468.869 172.842 463.47 166.557 454.039 166.557H433.345C427.822 166.557 423.345 162.079 423.345 156.557C423.345 151.035 427.822 146.557 433.345 146.557H454.039C470.641 146.557 484.679 156.761 489.801 172.553C494.924 188.345 489.549 204.846 476.108 214.591L375.936 287.223L414.385 404.422C419.566 420.214 414.234 436.742 400.801 446.529C387.369 456.315 370.002 456.326 356.557 446.553L256.768 374.025L156.601 447.005C149.879 451.904 142.171 454.353 134.462 454.353V454.353Z" fill="black"/>
</g>
<g id="XMLID 1847">
<g id="XMLID 1848">
<path id="XMLID 851" d="M385.924 176.56C383.294 176.56 380.714 175.491 378.854 173.63C376.994 171.77 375.924 169.19 375.924 166.56C375.924 163.93 376.994 161.35 378.854 159.491C380.714 157.631 383.284 156.56 385.924 156.56C388.554 156.56 391.134 157.63 392.994 159.491C394.854 161.35 395.924 163.93 395.924 166.56C395.924 169.19 394.854 171.77 392.994 173.63C391.134 175.49 388.554 176.56 385.924 176.56Z" fill="black"/>
</g>
</g>
</g>
</g>
</g>
</svg>
