<svg width="512" height="512" viewBox="0 0 512 512" fill="none" xmlns="http://www.w3.org/2000/svg">
<g id="star2">
<path id="left-section" d="M511.266 197.258C509.502 191.826 504.808 187.869 499.158 187.049L340.436 163.983L269.452 20.156C266.925 15.035 261.711 11.795 256.001 11.795C250.292 11.795 245.077 15.035 242.55 20.156L171.562 163.982L12.843 187.049C7.19401 187.869 2.49801 191.826 0.735012 197.256C-1.02999 202.688 0.442012 208.649 4.53001 212.633L119.378 324.588L92.27 482.67C91.305 488.299 93.619 493.985 98.238 497.342C102.857 500.697 108.979 501.141 114.035 498.483L256 423.845L397.961 498.482C400.156 499.636 402.552 500.205 404.94 500.205C408.05 500.205 411.146 499.24 413.758 497.342C418.377 493.985 420.691 488.297 419.726 482.67L392.61 324.588L507.47 212.633C511.559 208.648 513.031 202.687 511.266 197.258Z" fill="#FED42D"/>
<path id="right-section" d="M511.266 197.258C509.502 191.826 504.808 187.869 499.158 187.049L340.436 163.983L269.452 20.156C266.925 15.035 261.711 11.795 256.001 11.795V423.846L397.962 498.483C400.157 499.637 402.553 500.206 404.941 500.206C408.051 500.206 411.147 499.241 413.759 497.343C418.378 493.986 420.692 488.298 419.727 482.671L392.61 324.588L507.47 212.633C511.559 208.648 513.031 202.687 511.266 197.258Z" fill="#FCBF29"/>
</g>
</svg>
