<svg width="513" height="430" viewBox="0 0 513 430" fill="none" xmlns="http://www.w3.org/2000/svg">
<g id="car" clip-path="url(#clip0)">
<g id="car-main">
<g id="Group">
<path id="left-wheel" d="M105.21 199.677C83.3193 199.889 65.7532 217.577 65.9615 239.209C65.978 240.899 66.1205 242.518 66.3507 244.137C68.9924 263.429 85.7637 278.198 105.966 277.998C126.722 277.808 143.559 261.896 145.088 241.819C145.17 240.709 145.242 239.599 145.231 238.478C145.022 216.835 127.106 199.472 105.21 199.677ZM101.932 214.582L102.036 225.847C100.787 226.183 99.6357 226.671 98.545 227.326L90.4005 219.424C93.6945 216.895 97.6132 215.205 101.932 214.582ZM85.5993 224.271L93.7547 232.184C93.1464 233.262 92.6586 234.416 92.3571 235.634L80.9625 235.759C81.5106 231.475 83.122 227.57 85.5993 224.271ZM80.979 242.529L92.4613 242.42C92.8011 243.628 93.2834 244.76 93.9301 245.805L85.9007 253.881C83.3796 250.653 81.6312 246.769 80.979 242.529ZM90.8499 258.603L98.8355 250.561C99.8933 251.146 101.066 251.601 102.288 251.904L102.393 263.202C98.101 262.655 94.1713 261.019 90.8499 258.603ZM130.164 235.293L118.764 235.401C118.44 234.172 117.942 233.029 117.289 231.962L125.302 223.892C127.84 227.147 129.528 231.02 130.164 235.293ZM108.789 214.517C113.124 215.07 117.076 216.684 120.408 219.143L112.417 227.18C111.332 226.557 110.153 226.08 108.893 225.761L108.789 214.517ZM109.26 263.131L109.15 251.833C110.373 251.514 111.518 251.048 112.576 250.414L120.704 258.316C117.437 260.808 113.54 262.514 109.26 263.131ZM125.576 253.529L117.383 245.583C117.985 244.527 118.506 243.395 118.824 242.16L130.202 242.052C129.643 246.314 128.065 250.257 125.576 253.529Z" fill="black"/>
<path id="right-wheel" d="M425.224 199.677C403.333 199.889 385.767 217.577 385.975 239.209C385.992 240.899 386.134 242.518 386.365 244.137C389.001 263.429 405.778 278.198 425.98 277.998C446.73 277.808 463.573 261.896 465.102 241.819C465.19 240.709 465.256 239.599 465.245 238.478C465.036 216.835 447.119 199.472 425.224 199.677ZM421.935 214.582L422.045 225.847C420.79 226.183 419.644 226.671 418.553 227.326L410.409 219.424C413.697 216.895 417.611 215.205 421.935 214.582ZM405.613 224.271L413.769 232.184C413.155 233.262 412.673 234.416 412.366 235.634L400.976 235.759C401.525 231.475 403.136 227.57 405.613 224.271ZM400.993 242.529L412.475 242.42C412.815 243.628 413.292 244.76 413.944 245.805L405.915 253.881C403.394 250.653 401.634 246.769 400.993 242.529ZM410.864 258.603L418.849 250.561C419.902 251.146 421.08 251.601 422.297 251.904L422.406 263.202C418.115 262.655 414.174 261.019 410.864 258.603ZM450.178 235.293L438.778 235.401C438.454 234.172 437.956 233.029 437.303 231.962L445.316 223.892C447.854 227.147 449.542 231.02 450.178 235.293ZM428.792 214.517C433.121 215.07 437.084 216.684 440.411 219.143L432.42 227.18C431.34 226.557 430.156 226.08 428.896 225.761L428.792 214.517ZM429.263 263.131L429.153 251.833C430.376 251.514 431.521 251.048 432.579 250.414L440.707 258.316C437.451 260.808 433.554 262.514 429.263 263.131ZM445.59 253.529L437.397 245.583C437.999 244.527 438.52 243.395 438.838 242.16L450.216 242.052C449.657 246.314 448.079 250.257 445.59 253.529Z" fill="black"/>
<path id="car-body" d="M530.263 157.72C529.622 156.929 528.647 156.458 527.616 156.458H492.605C491.218 156.458 489.974 157.303 489.47 158.586L487.239 164.246C487.239 164.246 388.453 128.658 366.42 121.086C349.336 115.215 302.19 115.649 274.474 116.488C260.816 116.905 247.152 119.683 234.458 124.699C211.126 133.911 172.07 149.764 151.977 160.357C104.212 161.354 59.4777 172.083 49.5629 176.817C39.6536 181.556 18.2456 200.506 18.2456 200.506L-7.64582 213.987C-11.1755 215.828 -13.2637 219.554 -12.9732 223.497L-11.4221 244.164C-11.0768 248.79 -7.54169 252.543 -2.9104 253.242L58.7652 262.432L63.8405 262.227C60.8863 257.109 58.842 251.378 58.0034 245.248C57.7074 243.173 57.554 241.213 57.532 239.29C57.2799 213.104 78.6332 191.591 105.138 191.337C131.863 191.337 153.419 212.443 153.666 238.391C153.677 239.75 153.6 241.088 153.507 242.431C153.063 248.21 151.523 253.702 149.144 258.733L381.805 258.257C379.947 254.2 378.642 249.835 378.017 245.253C377.721 243.179 377.562 241.218 377.546 239.295C377.294 213.109 398.647 191.597 425.152 191.342C451.871 191.342 473.438 212.448 473.679 238.396C473.69 239.756 473.614 241.093 473.515 242.437C473.285 245.486 472.753 248.47 471.953 251.351L474.118 251.183L515.969 238.775C519.795 237.644 522.574 234.378 523.056 230.467L526.794 199.645C527.265 195.762 526.454 191.846 524.481 188.456L517.46 176.378L528.307 168.238C528.932 167.767 529.37 167.1 529.562 166.342L530.932 160.58C531.129 159.561 530.894 158.516 530.263 157.72ZM342.08 163.401L236.004 166.483C236.004 166.483 235.987 153.555 220.307 151.946L245.316 137.307C254.354 132.01 264.564 129.313 275.071 129.394C294.205 129.541 325.911 129.893 344.628 130.683C347.95 130.819 350.975 132.649 352.619 135.514C354.263 138.379 354.296 141.884 352.701 144.776C347.467 154.297 342.08 163.401 342.08 163.401Z" fill="black"/>
</g>
</g>
</g>
<defs>
<clipPath id="clip0">
<rect width="513" height="430" fill="white"/>
</clipPath>
</defs>
</svg>
