<svg width="434" height="408" viewBox="0 0 434 408" fill="none" xmlns="http://www.w3.org/2000/svg">
<g id="car" clip-path="url(#clip0)">
<g id="car-main">
<g id="Group">
<path id="left-wheel" d="M108.306 178.824C90.8421 179.028 76.8282 196.113 76.9943 217.007C77.0075 218.639 77.1211 220.203 77.3048 221.768C79.4123 240.401 92.7922 254.667 108.909 254.474C125.468 254.29 138.9 238.921 140.12 219.529C140.186 218.456 140.243 217.384 140.234 216.301C140.068 195.397 125.774 178.625 108.306 178.824ZM105.691 193.22L105.774 204.101C104.777 204.426 103.859 204.897 102.989 205.53L96.4914 197.897C99.1193 195.454 102.246 193.822 105.691 193.22ZM92.6611 202.579L99.1674 210.222C98.682 211.263 98.2929 212.377 98.0524 213.554L88.9619 213.675C89.3992 209.537 90.6847 205.765 92.6611 202.579ZM88.975 220.214L98.1354 220.109C98.4065 221.276 98.7913 222.369 99.3073 223.379L92.9015 231.179C90.8902 228.061 89.4954 224.31 88.975 220.214ZM96.8499 235.74L103.221 227.972C104.065 228.537 105 228.976 105.975 229.269L106.058 240.182C102.635 239.653 99.4997 238.073 96.8499 235.74ZM128.214 213.225L119.119 213.329C118.861 212.142 118.463 211.038 117.943 210.008L124.336 202.213C126.36 205.357 127.707 209.097 128.214 213.225ZM111.161 193.158C114.62 193.691 117.772 195.25 120.431 197.625L114.056 205.388C113.19 204.787 112.25 204.326 111.244 204.018L111.161 193.158ZM111.537 240.114L111.45 229.201C112.425 228.893 113.339 228.443 114.183 227.831L120.667 235.463C118.061 237.869 114.952 239.517 111.537 240.114ZM124.554 230.839L118.017 223.164C118.498 222.144 118.914 221.051 119.167 219.858L128.245 219.753C127.799 223.87 126.539 227.679 124.554 230.839Z" fill="black"/>
<path id="right-wheel" d="M363.608 178.824C346.145 179.028 332.131 196.113 332.297 217.007C332.31 218.639 332.424 220.203 332.607 221.768C334.71 240.401 348.095 254.667 364.212 254.474C380.766 254.29 394.203 238.921 395.423 219.529C395.493 218.456 395.545 217.384 395.536 216.301C395.37 195.397 381.077 178.625 363.608 178.824ZM360.985 193.22L361.072 204.101C360.071 204.426 359.157 204.897 358.287 205.53L351.789 197.897C354.413 195.454 357.535 193.822 360.985 193.22ZM347.963 202.579L354.47 210.222C353.98 211.263 353.595 212.377 353.35 213.554L344.264 213.675C344.702 209.537 345.987 205.765 347.963 202.579ZM344.277 220.214L353.438 220.109C353.709 221.276 354.089 222.369 354.61 223.379L348.204 231.179C346.193 228.061 344.789 224.31 344.277 220.214ZM352.152 235.74L358.523 227.972C359.363 228.537 360.303 228.976 361.273 229.269L361.361 240.182C357.937 239.653 354.793 238.073 352.152 235.74ZM383.516 213.225L374.422 213.329C374.164 212.142 373.766 211.038 373.245 210.008L379.638 202.213C381.662 205.357 383.009 209.097 383.516 213.225ZM366.455 193.158C369.909 193.691 373.07 195.25 375.725 197.625L369.349 205.388C368.488 204.787 367.544 204.326 366.538 204.018L366.455 193.158ZM366.831 240.114L366.743 229.201C367.719 228.893 368.632 228.443 369.476 227.831L375.961 235.463C373.363 237.869 370.255 239.517 366.831 240.114ZM379.857 230.839L373.32 223.164C373.801 222.144 374.216 221.051 374.47 219.858L383.547 219.753C383.101 223.87 381.842 227.679 379.857 230.839Z" fill="black"/>
<path id="car-body" d="M447.408 138.297C446.896 137.533 446.118 137.078 445.296 137.078H417.364C416.258 137.078 415.265 137.894 414.863 139.134L413.083 144.601C413.083 144.601 334.273 110.226 316.696 102.913C303.066 97.242 265.454 97.6606 243.342 98.4714C232.446 98.8742 221.545 101.558 211.419 106.402C192.805 115.3 161.646 130.612 145.617 140.845C107.51 141.807 71.8217 152.171 63.9118 156.743C56.0063 161.32 38.9272 179.624 38.9272 179.624L18.2715 192.645C15.4556 194.424 13.7897 198.023 14.0214 201.831L15.2588 221.794C15.5343 226.261 18.3546 229.886 22.0493 230.561L71.2532 239.439L75.3022 239.24C72.9454 234.296 71.3145 228.762 70.6455 222.84C70.4093 220.836 70.2869 218.943 70.2694 217.086C70.0683 191.792 87.1036 171.014 108.249 170.768C129.569 170.768 146.767 191.154 146.963 216.217C146.972 217.53 146.911 218.822 146.837 220.12C146.482 225.701 145.254 231.006 143.356 235.866L328.969 235.405C327.487 231.487 326.446 227.271 325.948 222.845C325.712 220.842 325.585 218.948 325.572 217.091C325.371 191.798 342.406 171.019 363.551 170.773C384.867 170.773 402.073 191.159 402.266 216.222C402.274 217.535 402.213 218.828 402.134 220.125C401.951 223.07 401.527 225.953 400.888 228.736L402.615 228.573L436.004 216.589C439.056 215.495 441.273 212.341 441.658 208.564L444.64 178.793C445.016 175.042 444.369 171.259 442.795 167.985L437.193 156.319L445.847 148.456C446.345 148.001 446.695 147.358 446.848 146.625L447.941 141.059C448.098 140.076 447.91 139.066 447.408 138.297ZM297.277 143.785L212.652 146.761C212.652 146.761 212.638 134.274 200.129 132.721L220.081 118.58C227.291 113.464 235.437 110.859 243.819 110.938C259.083 111.079 284.378 111.419 299.31 112.183C301.96 112.313 304.374 114.082 305.686 116.849C306.997 119.616 307.024 123.001 305.751 125.794C301.575 134.991 297.277 143.785 297.277 143.785Z" fill="black"/>
</g>
</g>
</g>
<defs>
<clipPath id="clip0">
<rect width="434" height="408" fill="white"/>
</clipPath>
</defs>
</svg>
