<svg width="937" height="708" viewBox="0 0 937 708" fill="none" xmlns="http://www.w3.org/2000/svg">
<g id="lighthouse" clip-path="url(#clip0)">
<g id="middle-trees">
<path id="Vector" d="M570.22 408.02L580.26 442.79L590.3 477.56H570.22H550.14L560.18 442.79L570.22 408.02Z" fill="#3AD29F"/>
<path id="Vector_2" d="M589.99 403.31L600.02 438.08L610.06 472.86H589.99H569.91L579.95 438.08L589.99 403.31Z" fill="#3AD29F"/>
<path id="Vector_3" d="M609.75 403.31L619.79 438.08L629.83 472.86H609.75H589.67L599.71 438.08L609.75 403.31Z" fill="#3AD29F"/>
</g>
<path id="right-tree" d="M762.4 424.54L772.44 459.31L782.48 494.09H762.4H742.32L752.36 459.31L762.4 424.54Z" fill="#3AD29F"/>
<path id="left-tree" d="M120.25 390.33L137.44 422.18L154.63 454.03L135.02 458.29L115.4 462.56L117.82 426.44L120.25 390.33Z" fill="#3AD29F"/>
<path id="mountain" d="M0 707.09L38 528.09L66 491.09L94 443.09L146 412.09L185 390.09L201 438.09L231.74 458.67L251 487.09L281 477.09L319 446.09L348 438.09L389 412.09L427 422.09L466 408.09L492 390.09L517 420.09L531 459.09L534 473.09H570H610L635 446.09L674 438.09H712L738 446.09L784 459.09L886 707.09H0Z" fill="#BFB5B2"/>
<g id="right-crow">
<path id="Vector_4" opacity="0.3" d="M634.85 259.2H667.79C667.79 259.2 655.38 281.16 634.85 259.2Z" fill="#EA0505"/>
<path id="Vector_5" opacity="0.3" d="M636.84 268.54L658.44 243.67C658.44 243.67 666.88 267.44 636.84 268.54Z" fill="#EA0505"/>
</g>
<g id="middle-crow">
<path id="Vector_6" opacity="0.3" d="M517.2 327.91H550.14C550.14 327.91 537.73 349.87 517.2 327.91Z" fill="#EA0505"/>
<path id="Vector_7" opacity="0.3" d="M519.19 337.25L540.78 312.38C540.78 312.38 549.23 336.15 519.19 337.25Z" fill="#EA0505"/>
</g>
<g id="left-crow">
<path id="Vector_8" class="left-section" opacity="0.3" d="M474.59 70.01H509.92C509.92 70.01 496.61 93.61 474.59 70.01Z" fill="#EA0505"/>
<path id="Vector_9" class="right-section" opacity="0.3" d="M476.72 80.04L499.89 53.35C499.89 53.35 508.95 78.85 476.72 80.04Z" fill="#EA0505"/>
</g>
<g id="lighthouse-main">
<path id="Vector_10" d="M423.08 672.4H230.13L241.42 143.43H411.78L423.08 672.4Z" fill="white"/>
<path id="Vector_11" d="M200.95 472.86H453.2C453.2 482.347 449.431 491.445 442.723 498.153C436.015 504.861 426.917 508.63 417.43 508.63H236.72C227.233 508.63 218.135 504.861 211.427 498.153C204.719 491.445 200.95 482.347 200.95 472.86V472.86Z" fill="#F9A826"/>
<path id="Vector_12" d="M200.95 295H453.2C453.2 304.487 449.431 313.585 442.723 320.293C436.015 327.001 426.917 330.77 417.43 330.77H236.72C227.233 330.77 218.135 327.001 211.427 320.293C204.719 313.585 200.95 304.487 200.95 295V295Z" fill="#F9A826"/>
<path id="window" d="M327.07 265.32C352.541 265.32 373.19 244.671 373.19 219.2C373.19 193.729 352.541 173.08 327.07 173.08C301.599 173.08 280.95 193.729 280.95 219.2C280.95 244.671 301.599 265.32 327.07 265.32Z" fill="#FFFFA5"/>
<path id="door" d="M377.9 672.4H318.6V590.98C318.6 583.116 321.724 575.575 327.284 570.014C332.845 564.454 340.386 561.33 348.25 561.33V561.33C356.113 561.333 363.653 564.457 369.213 570.017C374.773 575.577 377.897 583.117 377.9 590.98V672.4Z" fill="#E0E0E0"/>
<path id="Vector_13" d="M453.67 106.21C453.67 141.4 396.78 169.92 326.6 169.92C256.42 169.92 199.53 141.4 199.53 106.21C199.53 71.02 256.42 0 326.6 0C396.78 0 453.67 71.03 453.67 106.21Z" fill="#F9A826"/>
</g>
<path id="water" d="M882.87 706.668H0C0 706.668 57 575.668 143.4 552.488C155.854 549.076 168.859 548.156 181.67 549.778C202.51 552.428 221.36 563.358 234.75 579.548C263.07 613.788 349.8 688.398 523.33 603.138C523.33 603.138 585.45 541.018 685.22 614.428C691.401 617.502 697.744 620.239 704.22 622.628C734.83 634.198 796.06 650.318 839.59 616.308C899.82 569.248 882.87 706.668 882.87 706.668Z" fill="#4D8AF0"/>
</g>
<defs>
<clipPath id="clip0">
<rect width="936.51" height="707.22" fill="white"/>
</clipPath>
</defs>
</svg>
